<svg xmlns="http://www.w3.org/2000/svg" width="32px" height="32px"  viewBox="0 0 24 24"><path d="M21.881,10.32c-0.942-1.893-2.697-3.301-4.773-3.749c-2.158-0.457-4.371,0.137-6.044,1.564
                C10.507,7.824,9.867,7.659,9.19,7.659c-1.737,0-3.264,1.152-3.758,2.78c-1.179,0.009-2.277,0.631-2.834,1.637
                c-0.695,1.244-0.704,2.606-0.037,3.74c0.64,1.088,1.82,1.765,3.072,1.765h8.54c1.646,0,2.981-1.335,2.981-2.99
                c0-1.436-1.033-2.661-2.432-2.926c-0.009-0.027-0.027-0.064-0.046-0.091c0.192-0.11,0.393-0.174,0.631-0.219
                c0.247-0.046,0.567-0.027,0.832,0.046c0.274,0.073,0.549,0.201,0.75,0.366c0.274,0.219,0.439,0.439,0.594,0.75
                c0.11,0.229,0.43,0.283,0.631,0.165c0.219-0.128,0.274-0.402,0.165-0.622c-0.759-1.536-2.734-2.085-4.169-1.216
                c-0.347-0.274-0.759-0.393-1.161-0.402c-0.009-0.018-0.018-0.046-0.027-0.064c0.96-0.859,2.295-1.244,3.566-0.951
                c1.244,0.274,2.24,1.097,2.798,2.222c0.265,0.53,1.051,0.064,0.795-0.457c-0.677-1.353-1.957-2.368-3.438-2.67
                c-1.463-0.293-2.953,0.082-4.115,0.988c-0.192-0.311-0.421-0.594-0.695-0.832c3.017-2.396,7.525-1.39,9.253,2.103
                C21.351,11.308,22.137,10.841,21.881,10.32z M12.125,10.924c0.064,0.274,0.329,0.466,0.604,0.43
                c0.347-0.027,0.951,0.018,1.189,0.768c0.064,0.229,0.265,0.393,0.503,0.421c1.033,0.128,1.82,1.006,1.82,2.048
                c0,1.143-0.924,2.076-2.066,2.076h-8.54c-0.933,0-1.81-0.503-2.286-1.308c-0.494-0.85-0.485-1.884,0.046-2.835
                c0.402-0.722,1.198-1.17,2.103-1.17c0.064,0,0.128,0.009,0.201,0.009l0.466-0.009l0.082-0.393C6.538,9.58,7.773,8.574,9.19,8.574
                C10.607,8.574,11.814,9.543,12.125,10.924z"/></svg>