<svg xmlns="http://www.w3.org/2000/svg" version="1.1" xmlns:xlink="http://www.w3.org/1999/xlink" xmlns:svgjs="http://svgjs.dev/svgjs" width="2000" height="595" viewBox="0 0 2000 595"><g transform="matrix(1,0,0,1,-1.2112696095522324,1.2589879241233461)"><svg viewBox="0 0 396 118" data-background-color="#fefbf6" preserveAspectRatio="xMidYMid meet" height="595" width="2000" xmlns="http://www.w3.org/2000/svg" xmlns:xlink="http://www.w3.org/1999/xlink"><g id="tight-bounds" transform="matrix(1,0,0,1,0.24008861730862918,-0.24968163873370486)"><svg viewBox="0 0 395.52 118.49936327746741" height="118.49936327746741" width="395.52"><g><svg viewBox="0 0 395.52 118.49936327746741" height="118.49936327746741" width="395.52"><g><svg viewBox="0 0 395.52 118.49936327746741" height="118.49936327746741" width="395.52"><g id="textblocktransform"><svg viewBox="0 0 395.52 118.49936327746741" height="118.49936327746741" width="395.52" id="textblock"><g><svg viewBox="0 0 395.52 118.49936327746741" height="118.49936327746741" width="395.52"><path d="M394.594 25.416C392.735 13.116 387.435 9.696 387.435 9.696 371.165-2.973 350.86-0.242 332.619 1.578 300.414 1.652 268.339 4.358 236.208 5.809 168.767 6.031 100.749 2.39 33.643 11.369 27.339 14.124-6.54 11.91 1.121 26.99 3.129 33.263 10.456 40.225 10.232 45.982 11.236 46.99 12.631 44.678 13.226 46.129 15.309 50.041 18.711 48.196 21.501 50.508 17.614 56.683 20.403 61.824 23.062 67.212 18.377 68.614 12.371 67.95 9.675 72.599 9.396 75.97 7.89 75.33 6.235 75.182 5.026 75.084 2.59 75.453 2.999 76.511 4.394 80.127-1.594 82.218 2.162 85.761-0.422 89.598 3.948 92.919 3.353 97.077 3.278 97.913 3.687 98.627 4.338 98.823 7.22 99.881 3.018 101.948 3.464 104.186 33.029 119.488 65.104 108.91 95.394 115.945 103.259 111.025 97.346 117.692 100.489 116.659 102.943 115.453 104.728 120.447 107.499 117.618 107.927 116.806 107.276 114.887 108.8 115.256 109.6 115.453 110.307 115.404 110.418 114.272 110.586 112.575 109.117 113.633 108.726 112.747 112.947 108.27 111.906 118.922 115.866 118.479 115.68 117.175 114.528 115.306 116.889 115.552 119.232 113.682 119.306 112.132 121.389 116.339 121.463 117.249 121.835 117.889 122.43 118.331 128.938 113.756 135.409 119.955 142.233 117.889 146.417 115.625 150.433 119.119 154.672 118.258 156.16 117.569 157.666 116.339 159.098 118.405 176.632 118.848 195.319 117.003 211.943 118.479 256.364 115.724 303.836 119.611 350.674 115.97 361.719 114.568 373.192 112.575 383.958 110.976 383.958 110.976 392.679 106.597 392.679 86.917S394.538 69.697 394.817 54.026C395.096 38.356 396.398 37.716 394.538 25.416Z" opacity="1" fill="#000000" data-fill-palette-color="tertiary"></path><g transform="matrix(1,0,0,1,55.76832,26.230666666666668)"><svg width="283.98335999999995" viewBox="0.49 -37.4 209.75 48.78" height="66.03802994413407" data-palette-color="#fefbf6"><path d="M36.08-33.45L43.36-33.3Q41.94-26.42 40.65-19.58 39.36-12.74 37.89-5.86L37.89-5.86 27.73-5.76 24.02-18.95 15.53-5.76 4.44-4.93Q4.05-8.3 3.61-11.72 3.17-15.14 2.64-18.51L2.64-18.51Q2.1-22.02 1.56-25.46 1.03-28.91 0.49-32.37L0.49-32.37 10.55-32.67 13.77-17.38Q14.75-19.58 15.77-21.73 16.8-23.88 17.82-26.07L17.82-26.07Q18.9-28.52 20.17-30.71L20.17-30.71 25.68-30.62Q27.1-27.05 28.44-23.51 29.79-19.97 31.35-16.5L31.35-16.5Q32.23-18.85 32.89-20.87 33.54-22.9 34.08-24.88 34.62-26.86 35.11-28.93 35.6-31.01 36.08-33.45L36.08-33.45ZM79.29-2.49L79.29-2.49 71.04-2.15 70.46-7.08Q69.53-5.81 68.23-4.93 66.94-4.05 65.45-3.52 63.96-2.98 62.38-2.76 60.79-2.54 59.27-2.54L59.27-2.54Q58.1-2.54 56.37-2.73 54.64-2.93 52.85-3.3 51.07-3.66 49.56-4.25 48.04-4.83 47.36-5.62L47.36-5.62Q46.82-6.2 46.56-7.5 46.29-8.79 46.19-10.25 46.09-11.72 46.09-13.09 46.09-14.45 46.09-15.28L46.09-15.28Q46.09-18.95 46.38-22.51 46.68-26.07 47.21-29.59L47.21-29.59Q48.58-29.74 50.14-29.74L50.14-29.74Q51.41-29.74 52.68-29.57 53.95-29.39 55.22-29.15L55.22-29.15Q55.22-28.91 55.27-27.73 55.32-26.56 55.39-24.95 55.47-23.34 55.56-21.51 55.66-19.68 55.78-18.12 55.91-16.55 56.08-15.45 56.25-14.36 56.44-14.26L56.44-14.26Q57.18-13.82 58.05-13.77 58.93-13.72 59.76-13.72L59.76-13.72Q60.35-13.72 61.59-13.79 62.84-13.87 64.16-14.04 65.48-14.21 66.6-14.48 67.72-14.75 68.11-15.14L68.11-15.14Q68.26-15.28 68.33-16.06 68.41-16.85 68.43-17.77 68.45-18.7 68.48-19.51 68.5-20.31 68.5-20.46L68.5-20.46Q68.5-22.66 68.41-24.8 68.31-26.95 68.21-29.15L68.21-29.15 77.68-29.59Q77.98-26.17 78.22-22.78 78.46-19.38 78.85-15.97L78.85-15.97Q79-14.84 79.03-13.67 79.05-12.5 79.1-11.33L79.1-11.33Q79.2-9.13 79.22-6.93 79.25-4.74 79.29-2.49ZM93.21-32.67L93.21-32.67Q93.21-31.69 92.77-30.86 92.33-30.03 91.65-29.37 90.96-28.71 90.08-28.34 89.2-27.98 88.28-27.98L88.28-27.98Q87.3-27.98 86.45-28.42 85.59-28.86 84.96-29.54 84.32-30.22 83.98-31.13 83.64-32.03 83.64-33.01L83.64-33.01Q83.64-34.86 84.98-36.13 86.32-37.4 88.18-37.4L88.18-37.4Q89.11-37.4 90.01-37.04 90.91-36.67 91.62-36.01 92.33-35.35 92.77-34.5 93.21-33.64 93.21-32.67ZM94.23-22.8L94.23-18.16Q94.23-14.26 94.23-10.45 94.23-6.64 94.18-2.73L94.18-2.73Q94.18-1.46 94.14-0.2 94.09 1.07 94.09 2.34L94.09 2.34Q94.09 3.47 93.99 4.79 93.89 6.1 93.57 7.35 93.26 8.59 92.55 9.57 91.84 10.55 90.57 10.94L90.57 10.94Q90.13 11.08 88.72 11.18 87.3 11.28 85.69 11.33 84.08 11.38 82.64 11.38 81.2 11.38 80.71 11.38L80.71 11.38Q79.98 11.38 79.24 11.35 78.51 11.33 77.83 11.33L77.83 11.33Q77.73 9.47 77.41 7.79 77.09 6.1 76.8 4.25L76.8 4.25 81.64 3.81Q82.32 3.76 83.12 3.71 83.93 3.66 84.61 3.44 85.3 3.22 85.74 2.71 86.18 2.2 86.18 1.22L86.18 1.22Q86.18-1.03 85.98-3.27 85.79-5.52 85.64-7.76L85.64-7.76Q85.4-11.43 85.1-15.09 84.81-18.75 84.52-22.51L84.52-22.51Q85.05-22.46 85.54-22.46 86.03-22.46 86.57-22.46L86.57-22.46Q88.47-22.46 90.4-22.58 92.33-22.71 94.23-22.8L94.23-22.8ZM108.24-32.67L108.24-32.67Q108.24-31.69 107.83-30.83 107.41-29.98 106.71-29.35 106-28.71 105.12-28.34 104.24-27.98 103.36-27.98L103.36-27.98Q102.39-27.98 101.53-28.42 100.68-28.86 100.04-29.54 99.41-30.22 99.06-31.13 98.72-32.03 98.72-32.96L98.72-32.96Q98.72-33.89 99.09-34.69 99.46-35.5 100.07-36.08 100.68-36.67 101.48-37.01 102.29-37.35 103.22-37.35L103.22-37.35Q104.14-37.35 105.05-36.99 105.95-36.62 106.66-35.96 107.37-35.3 107.81-34.45 108.24-33.59 108.24-32.67ZM110.25-24.37L110.25-24.37Q110-21.78 109.86-19.24 109.71-16.7 109.56-14.16L109.56-14.16Q109.37-11.18 108.9-8.25 108.44-5.32 107.85-2.39L107.85-2.39 100.38-1.61Q100.38-3.17 100.41-4.69 100.43-6.2 100.43-7.76L100.43-7.76Q100.43-11.77 100.29-15.77 100.14-19.78 99.99-23.78L99.99-23.78Q102.58-23.88 105.1-24.07 107.61-24.27 110.25-24.37ZM124.4-32.67L124.4-32.67Q124.4-31.69 123.96-30.86 123.53-30.03 122.84-29.37 122.16-28.71 121.28-28.34 120.4-27.98 119.47-27.98L119.47-27.98Q118.5-27.98 117.64-28.42 116.79-28.86 116.15-29.54 115.52-30.22 115.18-31.13 114.83-32.03 114.83-33.01L114.83-33.01Q114.83-34.86 116.18-36.13 117.52-37.4 119.37-37.4L119.37-37.4Q120.3-37.4 121.21-37.04 122.11-36.67 122.82-36.01 123.53-35.35 123.96-34.5 124.4-33.64 124.4-32.67ZM125.43-22.8L125.43-18.16Q125.43-14.26 125.43-10.45 125.43-6.64 125.38-2.73L125.38-2.73Q125.38-1.46 125.33-0.2 125.28 1.07 125.28 2.34L125.28 2.34Q125.28 3.47 125.19 4.79 125.09 6.1 124.77 7.35 124.45 8.59 123.74 9.57 123.04 10.55 121.77 10.94L121.77 10.94Q121.33 11.08 119.91 11.18 118.5 11.28 116.88 11.33 115.27 11.38 113.83 11.38 112.39 11.38 111.9 11.38L111.9 11.38Q111.17 11.38 110.44 11.35 109.71 11.33 109.02 11.33L109.02 11.33Q108.93 9.47 108.61 7.79 108.29 6.1 108 4.25L108 4.25 112.83 3.81Q113.52 3.76 114.32 3.71 115.13 3.66 115.81 3.44 116.49 3.22 116.93 2.71 117.37 2.2 117.37 1.22L117.37 1.22Q117.37-1.03 117.18-3.27 116.98-5.52 116.84-7.76L116.84-7.76Q116.59-11.43 116.3-15.09 116.01-18.75 115.71-22.51L115.71-22.51Q116.25-22.46 116.74-22.46 117.23-22.46 117.76-22.46L117.76-22.46Q119.67-22.46 121.6-22.58 123.53-22.71 125.43-22.8L125.43-22.8ZM164.1-2.49L164.1-2.49 155.85-2.15 155.26-7.08Q154.33-5.81 153.04-4.93 151.75-4.05 150.26-3.52 148.77-2.98 147.18-2.76 145.59-2.54 144.08-2.54L144.08-2.54Q142.91-2.54 141.17-2.73 139.44-2.93 137.66-3.3 135.88-3.66 134.36-4.25 132.85-4.83 132.17-5.62L132.17-5.62Q131.63-6.2 131.36-7.5 131.09-8.79 130.99-10.25 130.9-11.72 130.9-13.09 130.9-14.45 130.9-15.28L130.9-15.28Q130.9-18.95 131.19-22.51 131.48-26.07 132.02-29.59L132.02-29.59Q133.39-29.74 134.95-29.74L134.95-29.74Q136.22-29.74 137.49-29.57 138.76-29.39 140.03-29.15L140.03-29.15Q140.03-28.91 140.08-27.73 140.12-26.56 140.2-24.95 140.27-23.34 140.37-21.51 140.47-19.68 140.59-18.12 140.71-16.55 140.88-15.45 141.05-14.36 141.25-14.26L141.25-14.26Q141.98-13.82 142.86-13.77 143.74-13.72 144.57-13.72L144.57-13.72Q145.15-13.72 146.4-13.79 147.64-13.87 148.96-14.04 150.28-14.21 151.4-14.48 152.53-14.75 152.92-15.14L152.92-15.14Q153.06-15.28 153.14-16.06 153.21-16.85 153.23-17.77 153.26-18.7 153.28-19.51 153.31-20.31 153.31-20.46L153.31-20.46Q153.31-22.66 153.21-24.8 153.11-26.95 153.01-29.15L153.01-29.15 162.49-29.59Q162.78-26.17 163.02-22.78 163.27-19.38 163.66-15.97L163.66-15.97Q163.81-14.84 163.83-13.67 163.85-12.5 163.9-11.33L163.9-11.33Q164-9.13 164.03-6.93 164.05-4.74 164.1-2.49ZM202.96-33.45L210.24-33.3Q208.82-26.42 207.53-19.58 206.24-12.74 204.77-5.86L204.77-5.86 194.61-5.76 190.9-18.95 182.41-5.76 171.32-4.93Q170.93-8.3 170.49-11.72 170.05-15.14 169.52-18.51L169.52-18.51Q168.98-22.02 168.44-25.46 167.9-28.91 167.37-32.37L167.37-32.37 177.43-32.67 180.65-17.38Q181.63-19.58 182.65-21.73 183.68-23.88 184.7-26.07L184.7-26.07Q185.78-28.52 187.05-30.71L187.05-30.71 192.56-30.62Q193.98-27.05 195.32-23.51 196.66-19.97 198.23-16.5L198.23-16.5Q199.11-18.85 199.77-20.87 200.42-22.9 200.96-24.88 201.5-26.86 201.99-28.93 202.48-31.01 202.96-33.45L202.96-33.45Z" opacity="1" transform="matrix(1,0,0,1,0,0)" fill="#ffffff" class="wordmark-text-0" data-fill-palette-color="quaternary" id="text-0"></path></svg></g></svg></g></svg></g></svg></g><g></g></svg></g><defs></defs></svg><rect width="395.52" height="118.49936327746741" fill="none" stroke="none" visibility="hidden"></rect></g></svg></g></svg>